<svg version="1.1" xmlns="http://www.w3.org/2000/svg" xmlns:xlink="http://www.w3.org/1999/xlink" viewBox="0 0 97.2 97.2" xml:space="preserve">
	<path d="M48.5,24.4c-13.6,0-24.6,11-24.6,24.6s11,24.6,24.6,24.6c13.6,0,24.6-11,24.6-24.6S62.1,24.4,48.5,24.4z M67.4,50.6
		c0,1.4-1.2,2.6-2.6,2.6H48.2c-1.4,0-2.6-1.2-2.6-2.6V31.2c0-1.4,1.2-2.6,2.6-2.6c1.4,0,2.6,1.2,2.6,2.6V48h14
		C66.2,48,67.4,49.2,67.4,50.6z" fill="#4D868E"/>
	<path d="M78.1,0H19C8.6,0,0,8.6,0,19v59.1c0,10.5,8.6,19,19,19h59.1c10.5,0,19-8.6,19-19V19C97.2,8.6,88.6,0,78.1,0z M48.5,80.3
		c-17.2,0-31.2-14-31.2-31.2c0-17.2,14-31.2,31.2-31.2c17.2,0,31.2,14,31.2,31.2C79.8,66.2,65.7,80.3,48.5,80.3z" fill="#4D868E"/>
</svg>
