<svg version="1.1" xmlns="http://www.w3.org/2000/svg" xmlns:xlink="http://www.w3.org/1999/xlink" viewBox="0 0 47 47" style="enable-background:new 0 0 47 47;" xml:space="preserve">
	<path d="M21,22.7l0.1,0.1c0.4,0.5,0.4,1.2,0,1.7L21,24.7c-2.2,2.6-5.2,6.1-5.7,10.7h16.8c-0.5-4.6-3.5-8.1-5.7-10.7l-0.1-0.1
		c-0.4-0.5-0.4-1.2,0-1.7l0.1-0.1c2.2-2.6,5.2-6.2,5.7-10.7H15.3C15.8,16.6,18.8,20.1,21,22.7z M30.7,33.5c0.1,0.2,0.1,0.4,0,0.6
		c-0.1,0.2-0.3,0.3-0.6,0.3h-13c-0.2,0-0.4-0.1-0.6-0.3c-0.1-0.2-0.1-0.4,0-0.6c1-1.8,2.7-3.6,4.8-5.2c1-0.8,1.6-1.7,1.6-2.6
		c0-0.4,0.3-0.6,0.6-0.6c0.4,0,0.6,0.3,0.6,0.6c0,0.9,0.6,1.9,1.6,2.6C28.1,29.9,29.7,31.6,30.7,33.5z M20.5,15.9h6.5
		c0.2,0,0.4,0.1,0.5,0.3c0.1,0.2,0.2,0.4,0.1,0.6c-0.5,1.5-1.3,2.9-2.4,4.2c-0.5,0.6-0.8,1.3-0.8,2.1c0,0.4-0.3,0.6-0.6,0.6
		c-0.4,0-0.6-0.3-0.6-0.6c0-0.8-0.3-1.5-0.8-2.1c-1.1-1.3-1.9-2.7-2.4-4.2c-0.1-0.2,0-0.4,0.1-0.6C20,16,20.2,15.9,20.5,15.9z" fill="#4D868E"/>
	<path d="M38,0H9c-5,0-9,4.1-9,9V38c0,5,4.1,9,9,9H38c5,0,9-4.1,9-9V9C47,4.1,42.9,0,38,0z M34.7,35.4h0.4c0.7,0,1.3,0.6,1.3,1.3
		c0,0.7-0.6,1.3-1.3,1.3h-1.6H13.9h-1.6c-0.7,0-1.3-0.6-1.3-1.3c0-0.7,0.6-1.3,1.3-1.3h0.4c0.4-5.1,3.4-8.9,5.7-11.7
		c-2.3-2.8-5.3-6.6-5.7-11.7h-0.4c-0.7,0-1.3-0.6-1.3-1.3c0-0.7,0.6-1.3,1.3-1.3h22.8c0.7,0,1.3,0.6,1.3,1.3S35.8,12,35.1,12h-0.4
		c-0.4,5.1-3.4,8.9-5.7,11.7C31.3,26.5,34.2,30.3,34.7,35.4z" fill="#4D868E"/>
</svg>
